<mxfile host="app.diagrams.net" agent="Mozilla/5.0 (Windows NT 10.0; Win64; x64; rv:132.0) Gecko/20100101 Firefox/132.0" version="24.8.3">
  <diagram name="Page-1" id="1GIaEnXw1OVsOHgeOdhA">
    <mxGraphModel dx="830" dy="442" grid="1" gridSize="10" guides="1" tooltips="1" connect="1" arrows="1" fold="1" page="1" pageScale="1" pageWidth="850" pageHeight="1100" math="0" shadow="0">
      <root>
        <mxCell id="0" />
        <mxCell id="1" parent="0" />
        <mxCell id="5KCFoeUiekdsdQepZHM_-3" value="" style="edgeStyle=orthogonalEdgeStyle;rounded=0;orthogonalLoop=1;jettySize=auto;html=1;" parent="1" source="5KCFoeUiekdsdQepZHM_-1" target="5KCFoeUiekdsdQepZHM_-2" edge="1">
          <mxGeometry relative="1" as="geometry" />
        </mxCell>
        <mxCell id="5KCFoeUiekdsdQepZHM_-1" value="Main character wakes up" style="rounded=1;whiteSpace=wrap;html=1;" parent="1" vertex="1">
          <mxGeometry x="365" y="20" width="120" height="60" as="geometry" />
        </mxCell>
        <mxCell id="5KCFoeUiekdsdQepZHM_-5" value="" style="edgeStyle=orthogonalEdgeStyle;rounded=0;orthogonalLoop=1;jettySize=auto;html=1;" parent="1" source="5KCFoeUiekdsdQepZHM_-2" target="5KCFoeUiekdsdQepZHM_-4" edge="1">
          <mxGeometry relative="1" as="geometry" />
        </mxCell>
        <mxCell id="5KCFoeUiekdsdQepZHM_-2" value="Conversation with another character" style="ellipse;whiteSpace=wrap;html=1;rounded=1;" parent="1" vertex="1">
          <mxGeometry x="385" y="120" width="80" height="80" as="geometry" />
        </mxCell>
        <mxCell id="5KCFoeUiekdsdQepZHM_-11" style="edgeStyle=orthogonalEdgeStyle;rounded=0;orthogonalLoop=1;jettySize=auto;html=1;" parent="1" source="5KCFoeUiekdsdQepZHM_-4" target="5KCFoeUiekdsdQepZHM_-10" edge="1">
          <mxGeometry relative="1" as="geometry" />
        </mxCell>
        <mxCell id="5KCFoeUiekdsdQepZHM_-4" value="Ability to move around and click on things" style="whiteSpace=wrap;html=1;rounded=1;" parent="1" vertex="1">
          <mxGeometry x="365" y="260" width="120" height="60" as="geometry" />
        </mxCell>
        <mxCell id="5KCFoeUiekdsdQepZHM_-13" value="" style="edgeStyle=orthogonalEdgeStyle;rounded=0;orthogonalLoop=1;jettySize=auto;html=1;" parent="1" source="5KCFoeUiekdsdQepZHM_-10" target="5KCFoeUiekdsdQepZHM_-12" edge="1">
          <mxGeometry relative="1" as="geometry" />
        </mxCell>
        <mxCell id="5KCFoeUiekdsdQepZHM_-16" value="" style="edgeStyle=orthogonalEdgeStyle;rounded=0;orthogonalLoop=1;jettySize=auto;html=1;" parent="1" source="5KCFoeUiekdsdQepZHM_-10" target="5KCFoeUiekdsdQepZHM_-15" edge="1">
          <mxGeometry relative="1" as="geometry" />
        </mxCell>
        <mxCell id="5KCFoeUiekdsdQepZHM_-10" value="Player clicks" style="rhombus;whiteSpace=wrap;html=1;" parent="1" vertex="1">
          <mxGeometry x="379" y="360" width="92" height="80" as="geometry" />
        </mxCell>
        <mxCell id="5KCFoeUiekdsdQepZHM_-12" value="&lt;div&gt;Display short message&lt;/div&gt;" style="ellipse;whiteSpace=wrap;html=1;" parent="1" vertex="1">
          <mxGeometry x="560.5" y="360" width="80" height="80" as="geometry" />
        </mxCell>
        <mxCell id="5KCFoeUiekdsdQepZHM_-14" value="Yes" style="text;html=1;align=center;verticalAlign=middle;resizable=0;points=[];autosize=1;strokeColor=none;fillColor=none;" parent="1" vertex="1">
          <mxGeometry x="490" y="368" width="40" height="30" as="geometry" />
        </mxCell>
        <mxCell id="nmu_RtBM79Nrah6Di6ye-2" value="" style="edgeStyle=orthogonalEdgeStyle;rounded=0;orthogonalLoop=1;jettySize=auto;html=1;" parent="1" source="5KCFoeUiekdsdQepZHM_-15" target="nmu_RtBM79Nrah6Di6ye-1" edge="1">
          <mxGeometry relative="1" as="geometry" />
        </mxCell>
        <mxCell id="nmu_RtBM79Nrah6Di6ye-4" value="" style="edgeStyle=orthogonalEdgeStyle;rounded=0;orthogonalLoop=1;jettySize=auto;html=1;" parent="1" source="5KCFoeUiekdsdQepZHM_-15" target="nmu_RtBM79Nrah6Di6ye-3" edge="1">
          <mxGeometry relative="1" as="geometry" />
        </mxCell>
        <mxCell id="5KCFoeUiekdsdQepZHM_-15" value="Door can lead to a new area" style="whiteSpace=wrap;html=1;" parent="1" vertex="1">
          <mxGeometry x="365" y="480" width="120" height="60" as="geometry" />
        </mxCell>
        <mxCell id="5KCFoeUiekdsdQepZHM_-17" value="No" style="text;html=1;align=center;verticalAlign=middle;resizable=0;points=[];autosize=1;strokeColor=none;fillColor=none;" parent="1" vertex="1">
          <mxGeometry x="455" y="435" width="40" height="30" as="geometry" />
        </mxCell>
        <mxCell id="nmu_RtBM79Nrah6Di6ye-1" value="Play door opening animation" style="ellipse;whiteSpace=wrap;html=1;" parent="1" vertex="1">
          <mxGeometry x="150" y="465" width="115" height="90" as="geometry" />
        </mxCell>
        <mxCell id="nmu_RtBM79Nrah6Di6ye-6" value="" style="edgeStyle=orthogonalEdgeStyle;rounded=0;orthogonalLoop=1;jettySize=auto;html=1;" parent="1" source="nmu_RtBM79Nrah6Di6ye-3" target="nmu_RtBM79Nrah6Di6ye-5" edge="1">
          <mxGeometry relative="1" as="geometry" />
        </mxCell>
        <mxCell id="nmu_RtBM79Nrah6Di6ye-10" value="" style="edgeStyle=orthogonalEdgeStyle;rounded=0;orthogonalLoop=1;jettySize=auto;html=1;" parent="1" source="nmu_RtBM79Nrah6Di6ye-3" target="nmu_RtBM79Nrah6Di6ye-9" edge="1">
          <mxGeometry relative="1" as="geometry" />
        </mxCell>
        <mxCell id="nmu_RtBM79Nrah6Di6ye-3" value="Player enters new area" style="whiteSpace=wrap;html=1;" parent="1" vertex="1">
          <mxGeometry x="365" y="600" width="120" height="60" as="geometry" />
        </mxCell>
        <mxCell id="nmu_RtBM79Nrah6Di6ye-5" value="Camera quick view of new area" style="ellipse;whiteSpace=wrap;html=1;" parent="1" vertex="1">
          <mxGeometry x="590" y="585" width="105" height="90" as="geometry" />
        </mxCell>
        <mxCell id="cg1DQjYzUuZj5ZJGP0xP-2" value="" style="edgeStyle=orthogonalEdgeStyle;rounded=0;orthogonalLoop=1;jettySize=auto;html=1;" parent="1" source="nmu_RtBM79Nrah6Di6ye-9" target="cg1DQjYzUuZj5ZJGP0xP-1" edge="1">
          <mxGeometry relative="1" as="geometry" />
        </mxCell>
        <mxCell id="nmu_RtBM79Nrah6Di6ye-9" value="Give the player the ability to freely explore" style="whiteSpace=wrap;html=1;" parent="1" vertex="1">
          <mxGeometry x="365" y="720" width="120" height="60" as="geometry" />
        </mxCell>
        <mxCell id="xmn8ZIYs8Wee5Xut9ODS-2" value="" style="edgeStyle=orthogonalEdgeStyle;rounded=0;orthogonalLoop=1;jettySize=auto;html=1;" parent="1" source="cg1DQjYzUuZj5ZJGP0xP-1" target="xmn8ZIYs8Wee5Xut9ODS-1" edge="1">
          <mxGeometry relative="1" as="geometry" />
        </mxCell>
        <mxCell id="cg1DQjYzUuZj5ZJGP0xP-1" value="First zone: Greenery maybe?" style="whiteSpace=wrap;html=1;" parent="1" vertex="1">
          <mxGeometry x="365" y="840" width="120" height="60" as="geometry" />
        </mxCell>
        <mxCell id="QPjYyUaKe2Vzthkmlvb2-2" value="" style="edgeStyle=orthogonalEdgeStyle;rounded=0;orthogonalLoop=1;jettySize=auto;html=1;" parent="1" source="xmn8ZIYs8Wee5Xut9ODS-1" target="QPjYyUaKe2Vzthkmlvb2-1" edge="1">
          <mxGeometry relative="1" as="geometry" />
        </mxCell>
        <mxCell id="xmn8ZIYs8Wee5Xut9ODS-1" value="First monster encounter" style="shape=step;perimeter=stepPerimeter;whiteSpace=wrap;html=1;fixedSize=1;" parent="1" vertex="1">
          <mxGeometry x="365" y="970" width="120" height="80" as="geometry" />
        </mxCell>
        <mxCell id="1TeKBxmaTOy4pdmabN7e-2" value="" style="edgeStyle=orthogonalEdgeStyle;rounded=0;orthogonalLoop=1;jettySize=auto;html=1;" edge="1" parent="1" source="QPjYyUaKe2Vzthkmlvb2-1" target="1TeKBxmaTOy4pdmabN7e-1">
          <mxGeometry relative="1" as="geometry" />
        </mxCell>
        <mxCell id="QPjYyUaKe2Vzthkmlvb2-1" value="Maybe unsettling looking monster ?" style="ellipse;whiteSpace=wrap;html=1;" parent="1" vertex="1">
          <mxGeometry x="185" y="970" width="80" height="80" as="geometry" />
        </mxCell>
        <mxCell id="1TeKBxmaTOy4pdmabN7e-1" value="&lt;div&gt;Winning leads to&lt;/div&gt;&lt;div&gt;a&lt;/div&gt;&lt;div&gt;cut scene &lt;br&gt;&lt;/div&gt;" style="shape=parallelogram;perimeter=parallelogramPerimeter;whiteSpace=wrap;html=1;fixedSize=1;" vertex="1" parent="1">
          <mxGeometry x="5" y="980" width="120" height="60" as="geometry" />
        </mxCell>
      </root>
    </mxGraphModel>
  </diagram>
</mxfile>
